<?xml version="1.0" encoding="utf-8"?>
<!-- Generator: Adobe Illustrator 24.3.0, SVG Export Plug-In . SVG Version: 6.00 Build 0)  -->
<svg version="1.1" id="Layer_1" xmlns="http://www.w3.org/2000/svg" xmlns:xlink="http://www.w3.org/1999/xlink" x="0px" y="0px"
	 viewBox="0 0 216 216" style="enable-background:new 0 0 216 216;" xml:space="preserve">
<style type="text/css">
	.st0{fill:#2B3B4E;stroke:#FFFFFF;stroke-miterlimit:10;}
</style>
<g>
	<polygon class="st0" points="87.2,140.52 94.32,170.39 88.34,176.14 69.96,154.08 	"/>
	<polygon class="st0" points="76.97,128.2 46.99,121.52 41.33,127.58 63.67,145.64 	"/>
	<path class="st0" d="M91.68,57.74l7.24-7.24c1.9-1.9,4.99-1.9,6.9,0l4.48,4.48c1.9,1.9,1.9,4.99,0,6.9l-7.24,7.24"/>
	<path class="st0" d="M147.73,112.58l7.24-7.24c1.9-1.9,4.99-1.9,6.9,0l4.48,4.48c1.9,1.9,1.9,4.99,0,6.9l-7.24,7.24"/>
	<polygon class="st0" points="101.14,97.41 87.12,82.7 32.88,53.06 42.99,43.17 130.1,68.46 	"/>
	<polygon class="st0" points="118.19,114.5 132.84,128.58 162.26,182.95 172.19,172.87 147.27,85.66 	"/>
	<path class="st0" d="M90.87,107.73l-31.95,41.6c0,0-3.22,6.21-0.92,9.19c0,0,5.29,2.3,11.95-3.45l36.77-29.19l64.58-62.05
		c0,0,19.08-21.83,8.73-28.96c0,0-11.03-8.5-29.19,11.26L90.87,107.73z"/>
</g>
</svg>
