<?xml version="1.0" encoding="utf-8"?>
<!-- Generator: Adobe Illustrator 24.3.0, SVG Export Plug-In . SVG Version: 6.00 Build 0)  -->
<svg version="1.1" id="Layer_1" xmlns="http://www.w3.org/2000/svg" xmlns:xlink="http://www.w3.org/1999/xlink" x="0px" y="0px"
	 viewBox="0 0 216 216" style="enable-background:new 0 0 216 216;" xml:space="preserve">
<style type="text/css">
	.st0{fill:#EA7C41;}
	.st1{fill:#2B3B4E;}
	.st2{fill:#FFFFFF;}
	.st3{fill:#513130;}
	.st4{fill:#E3B995;}
	.st5{fill:#D8A98E;}
	.st6{clip-path:url(#XMLID_3_);fill:#D7D3D3;}
	.st7{fill:#94C01F;}
	.st8{fill:#789A0D;}
	.st9{fill:#EC0028;}
	.st10{fill:#D2002E;}
	.st11{fill:#F6D233;}
	.st12{fill:#683C11;}
	.st13{fill:#ECC00C;}
	.st14{fill:#F68F34;}
	.st15{fill:#F8B133;}
	.st16{fill:#EE7C1D;}
	.st17{fill:#F29100;}
	.st18{fill:#F8B53E;}
	.st19{fill:#E48100;}
	.st20{fill:#E5332A;}
	.st21{fill:#FF4C48;}
	.st22{fill:#CD1915;}
	.st23{fill:#AFD735;}
	.st24{fill:#86AC12;}
	.st25{fill:#ECECEC;}
	.st26{fill:#D9D9D9;}
	.st27{fill:#E3B692;}
	.st28{clip-path:url(#SVGID_2_);fill:none;stroke:#2B3B4E;stroke-miterlimit:10;}
	.st29{clip-path:url(#SVGID_4_);fill:none;stroke:#2B3B4E;stroke-miterlimit:10;}
	.st30{font-family:'Nanami-Light';}
	.st31{font-size:16.1941px;}
</style>
<rect x="0.05" y="0.04" class="st0" width="216.27" height="215.75"/>
<g>
	<path class="st1" d="M111.6,152H30.96c-7.52,0-13.62-6.1-13.62-13.62V15.83c0-7.52,6.1-13.62,13.62-13.62h80.64
		c7.52,0,13.62,6.1,13.62,13.62v122.55C125.22,145.9,119.12,152,111.6,152z"/>
	<circle class="st2" cx="34.03" cy="49.36" r="4.85"/>
	<circle class="st2" cx="34.03" cy="65.66" r="4.85"/>
	<circle class="st2" cx="34.03" cy="82.73" r="4.85"/>
	<circle class="st2" cx="34.03" cy="98.64" r="4.85"/>
	<circle class="st2" cx="34.03" cy="115.33" r="4.85"/>
	<circle class="st2" cx="34.03" cy="131.82" r="4.85"/>
	<path class="st2" d="M110.9,53.24H55.91c-1.69,0-3.06-1.37-3.06-3.06v-1.44c0-1.69,1.37-3.06,3.06-3.06h54.99
		c1.69,0,3.06,1.37,3.06,3.06v1.44C113.97,51.87,112.6,53.24,110.9,53.24z"/>
	<path class="st2" d="M110.9,69.73H55.91c-1.69,0-3.06-1.37-3.06-3.06v-1.44c0-1.69,1.37-3.06,3.06-3.06h54.99
		c1.69,0,3.06,1.37,3.06,3.06v1.44C113.97,68.36,112.6,69.73,110.9,69.73z"/>
	<path class="st2" d="M110.9,86.42H55.91c-1.69,0-3.06-1.37-3.06-3.06v-1.44c0-1.69,1.37-3.06,3.06-3.06h54.99
		c1.69,0,3.06,1.37,3.06,3.06v1.44C113.97,85.05,112.6,86.42,110.9,86.42z"/>
	<path class="st3" d="M128.81,89.14c0,0,9.31,4.07,4.66-38.13c0,0,0.58-32.89,26.48-30.56c0,0,26.48,0,19.79,46.86
		c0,0-1.46,12.51,9.9,26.48L128.81,89.14z"/>
	<path class="st4" d="M143.36,85.93c0,0,10.19,1.16,8.73-11.35c0,0-17.17-12.51-6.69-31.14c0,0,10.19-8.44,12.81-11.06l13.39,12.51
		c0,0,8.73,11.64-5.53,28.81c0,0-2.04,9.9,2.91,10.19l8.44,28.81l-22.99,18.63l-13.39-20.66L143.36,85.93"/>
	<path class="st5" d="M152.09,74.58c0,0,6.55,7.42,13.97-0.87c0,0-2.04,6.98,0.29,8.59c0,0-8.88,5.09-14.26-2.47V74.58z"/>
	<path class="st2" d="M110.9,102.72H55.91c-1.69,0-3.06-1.37-3.06-3.06v-1.44c0-1.69,1.37-3.06,3.06-3.06h54.99
		c1.69,0,3.06,1.37,3.06,3.06v1.44C113.97,101.35,112.6,102.72,110.9,102.72z"/>
	<g>
		<defs>
			<path id="XMLID_2_" d="M110.09,114.36c0,0,6.01-19.98,19.79-25.61l14.07-2.96l11.74,35.75l13.15-37.5c0,0,28.96,4.71,28.38,19.64
				c0,0,7.57,59.37-11.84,67.33l2.13,23.28c0,0-28.13,26.19-76.64,17.85c0,0,4.66-46.57,22.89-70.04c0,0-6.6,0.58-9.51-19.6
				L110.09,114.36z"/>
		</defs>
		<use xlink:href="#XMLID_2_"  style="overflow:visible;fill:#FFFFFF;"/>
		<clipPath id="XMLID_3_">
			<use xlink:href="#XMLID_2_"  style="overflow:visible;"/>
		</clipPath>
		<path class="st6" d="M177.72,126.39c-0.78,2.09-1.08,4.31-1.28,6.52c-0.21,2.34-0.36,4.68-0.53,7.02
			c-0.18,2.38-0.36,4.77-0.54,7.15c-0.09,1.18-0.16,2.36-0.26,3.54c0,0.05-0.01,0.09-0.02,0.12c-0.09-0.01-0.24,0.01-0.24,0.01
			c-0.13-0.01-0.29,0.02-0.42,0.02c-0.61,0.03-1.22,0.06-1.82,0.09c-9.59,0.45-19.2,0.25-28.76-0.58c-1.27-0.11-2.56-0.31-3.84-0.25
			c-1.27,0.06-2.36,0.57-3.59,0.82c-1.04,0.21-2.09-0.11-3.11-0.31c-1.18-0.24-2.36-0.37-3.53-0.01c-1.4,0.43-0.8,2.63,0.61,2.2
			c0.93-0.29,1.85-0.09,2.78,0.1c1.06,0.22,2.14,0.45,3.23,0.31c1.07-0.13,2.04-0.62,3.09-0.79c1.15-0.18,2.37,0.02,3.52,0.13
			c4.94,0.45,9.9,0.73,14.86,0.84c4.91,0.11,9.83,0.05,14.74-0.18c0.56-0.03,1.12-0.05,1.68-0.08c0.62-0.03,1.31,0,1.88-0.27
			c1.01-0.48,1.17-1.47,1.25-2.48c0.19-2.48,0.37-4.96,0.56-7.44c0.21-2.76,0.41-5.52,0.62-8.28c0.19-2.58,0.42-5.16,1.33-7.61
			C180.43,125.62,178.23,125.02,177.72,126.39z"/>
		<path class="st6" d="M185.25,171.17c-9.6,0.65-18.73-2.8-27.63-5.93c-4.48-1.57-9.02-3.16-13.71-4.02
			c-2.31-0.42-4.67-0.65-7.01-0.37c-2.17,0.26-4.22,0.94-6.19,1.9c-2.13,1.04-4.1,2.39-6.01,3.8c-2,1.47-3.96,2.96-5.41,5
			c-0.36,0.5-0.09,1.27,0.41,1.56c0.57,0.33,1.2,0.09,1.56-0.41c1.18-1.67,2.87-2.91,4.49-4.11c1.65-1.22,3.33-2.39,5.13-3.37
			c1.81-0.98,3.74-1.74,5.78-2.06c2.24-0.35,4.56-0.14,6.77,0.27c9.04,1.69,17.43,5.78,26.29,8.16c5.05,1.35,10.28,2.2,15.52,1.84
			C186.71,173.35,186.72,171.07,185.25,171.17z"/>
	</g>
	<g>
		<g>
			<g>
				<g>
					<path class="st7" d="M73.53,111.08C73.53,111.08,73.53,111.08,73.53,111.08l0.01-0.02c0.77-1.08,1.81-1.59,3-0.65
						C76,111.67,74.67,111.66,73.53,111.08z"/>
					<g>
						<path class="st8" d="M73.53,111.08c0.92,0.02,2.06-0.14,3.01-0.68C76,111.67,74.67,111.66,73.53,111.08z"/>
					</g>
				</g>
				<g>
					<path class="st7" d="M76.61,106.34C76.61,106.34,76.61,106.34,76.61,106.34l-0.01,0.02c-0.7,1.13-0.76,2.29,0.57,3.02
						C78.11,108.38,77.58,107.16,76.61,106.34z"/>
					<g>
						<path class="st8" d="M76.61,106.34c0.38,0.84,0.67,1.95,0.55,3.04C78.11,108.38,77.58,107.16,76.61,106.34z"/>
					</g>
				</g>
				<g>
					<path class="st7" d="M73.77,107.92C73.77,107.92,73.77,107.92,73.77,107.92l0.02-0.01c1.3-0.27,2.41,0.07,2.64,1.57
						C75.17,110.03,74.2,109.12,73.77,107.92z"/>
					<g>
						<path class="st8" d="M73.77,107.92c0.66,0.64,1.6,1.3,2.66,1.56C75.17,110.03,74.2,109.12,73.77,107.92z"/>
					</g>
				</g>
				<g>
					<path class="st7" d="M73.22,110.18C73.22,110.18,73.22,110.18,73.22,110.18l0.01-0.02c0.77-1.08,1.81-1.59,3-0.65
						C75.69,110.77,74.35,110.76,73.22,110.18z"/>
					<g>
						<path class="st8" d="M73.22,110.18c0.92,0.02,2.06-0.14,3.01-0.68C75.69,110.77,74.35,110.76,73.22,110.18z"/>
					</g>
				</g>
				<g>
					<path class="st7" d="M75.7,106.45C75.69,106.45,75.69,106.45,75.7,106.45l-0.01,0.02c-0.7,1.13-0.76,2.29,0.57,3.02
						C77.2,108.49,76.67,107.26,75.7,106.45z"/>
					<g>
						<path class="st8" d="M75.7,106.45c0.38,0.84,0.67,1.95,0.55,3.04C77.2,108.49,76.67,107.26,75.7,106.45z"/>
					</g>
				</g>
				<path class="st9" d="M75.7,107.89c-0.69,0.73-1.94,3.23-1.59,4.14c0.5,1.31,2.99,1.64,4.19,1.85c0.89,0.15,2.45,0.18,3.23-0.62
					c0.78-0.79-0.03-2.41-0.41-3.24c-0.52-1.13-1.65-2.33-2.29-2.89c-1.14-1-2.31-0.18-3.03,0.64L75.7,107.89z"/>
				<g>
					<path class="st10" d="M81.53,113.25c-0.79,0.8-2.34,0.78-3.23,0.62c-1.19-0.2-3.69-0.53-4.19-1.85
						c-0.05-0.13-0.07-0.29-0.06-0.47l0,0c0,0,0.24,1.07,3.48,1.69c0.33,0.06,2.95,0.59,4.13-0.16
						C81.62,113.15,81.58,113.2,81.53,113.25z"/>
				</g>
				<g>
					<g>
						<path class="st11" d="M75.05,110.87c0,0,0,0.02,0.02,0.05c0.01,0.02,0.03,0.05,0.06,0.06c0.03,0.01,0.06,0.02,0.08,0.02
							c0.03,0,0.05-0.01,0.05-0.01s0-0.02-0.02-0.05c-0.01-0.02-0.03-0.05-0.06-0.06c-0.03-0.01-0.06-0.02-0.08-0.02
							C75.07,110.86,75.05,110.87,75.05,110.87z"/>
					</g>
				</g>
				<g>
					<g>
						<path class="st11" d="M80.71,113.07c0,0,0,0.02,0.02,0.05c0.01,0.02,0.03,0.05,0.06,0.06c0.03,0.01,0.06,0.02,0.08,0.02
							c0.03,0,0.05-0.01,0.05-0.01s0-0.02-0.02-0.05c-0.01-0.02-0.03-0.05-0.06-0.06c-0.03-0.01-0.06-0.02-0.08-0.02
							C80.73,113.06,80.71,113.07,80.71,113.07z"/>
					</g>
				</g>
				<g>
					<g>
						<path class="st11" d="M80.14,112.3c0,0,0,0.02,0.02,0.05c0.01,0.02,0.03,0.05,0.06,0.06c0.03,0.01,0.06,0.02,0.08,0.02
							c0.03,0,0.05-0.01,0.05-0.01s0-0.02-0.02-0.05c-0.01-0.02-0.03-0.05-0.06-0.06c-0.03-0.01-0.06-0.02-0.08-0.02
							C80.16,112.29,80.14,112.3,80.14,112.3z"/>
					</g>
				</g>
				<g>
					<g>
						<path class="st11" d="M76.29,110.36c0,0,0,0.02,0.02,0.05c0.01,0.02,0.03,0.05,0.06,0.06c0.03,0.01,0.06,0.02,0.08,0.02
							c0.03,0,0.05-0.01,0.05-0.01s0-0.02-0.02-0.05c-0.01-0.02-0.03-0.05-0.06-0.06c-0.03-0.01-0.06-0.02-0.08-0.02
							C76.31,110.35,76.29,110.36,76.29,110.36z"/>
					</g>
				</g>
				<g>
					<g>
						<path class="st11" d="M76.66,109.26c0,0,0,0.02,0.02,0.05c0.01,0.02,0.03,0.05,0.06,0.06c0.03,0.01,0.06,0.02,0.08,0.02
							c0.03,0,0.05-0.01,0.05-0.01s0-0.02-0.02-0.05c-0.01-0.02-0.03-0.05-0.06-0.06c-0.03-0.01-0.06-0.02-0.08-0.02
							C76.68,109.25,76.66,109.26,76.66,109.26z"/>
					</g>
				</g>
				<g>
					<g>
						<path class="st11" d="M78.63,110.03c0,0,0,0.02,0.02,0.05c0.01,0.02,0.03,0.05,0.06,0.06c0.03,0.01,0.06,0.02,0.08,0.02
							c0.03,0,0.05-0.01,0.05-0.01s0-0.02-0.02-0.05c-0.01-0.02-0.03-0.05-0.06-0.06c-0.03-0.01-0.06-0.02-0.08-0.02
							C78.65,110.02,78.63,110.03,78.63,110.03z"/>
					</g>
				</g>
				<g>
					<g>
						<path class="st11" d="M75,111.88c0,0,0,0.02,0.02,0.05c0.01,0.02,0.03,0.05,0.06,0.06c0.03,0.01,0.06,0.02,0.08,0.02
							c0.03,0,0.05-0.01,0.05-0.01s0-0.02-0.02-0.05c-0.01-0.02-0.03-0.05-0.06-0.06c-0.03-0.01-0.06-0.02-0.08-0.02
							C75.02,111.87,75,111.88,75,111.88z"/>
					</g>
				</g>
				<g>
					<g>
						<path class="st11" d="M77.15,113.14c0,0,0,0.02,0.02,0.05c0.01,0.02,0.03,0.05,0.06,0.06c0.03,0.01,0.06,0.02,0.08,0.02
							c0.03,0,0.05-0.01,0.05-0.01s0-0.02-0.02-0.05c-0.01-0.02-0.03-0.05-0.06-0.06c-0.03-0.01-0.06-0.02-0.08-0.02
							C77.17,113.13,77.15,113.14,77.15,113.14z"/>
					</g>
				</g>
				<g>
					<g>
						<path class="st11" d="M80.64,110.96c0,0,0,0.03,0.01,0.06c0.01,0.03,0.02,0.06,0.05,0.09c0.02,0.03,0.06,0.05,0.09,0.06
							c0.03,0.01,0.06,0.01,0.06,0.01s0-0.03-0.01-0.06c-0.01-0.03-0.02-0.06-0.05-0.09c-0.03-0.03-0.06-0.05-0.09-0.06
							C80.66,110.96,80.64,110.96,80.64,110.96z"/>
					</g>
				</g>
				<g>
					<g>
						<path class="st11" d="M77.74,107.41c0,0,0,0.02,0,0.05c0,0.03,0.02,0.06,0.04,0.08c0.02,0.02,0.05,0.04,0.08,0.04
							c0.03,0.01,0.05,0.01,0.05,0.01s0-0.02,0-0.05c0-0.03-0.02-0.06-0.04-0.08c-0.02-0.02-0.05-0.04-0.07-0.04
							C77.76,107.41,77.74,107.41,77.74,107.41z"/>
					</g>
				</g>
				<g>
					<g>
						<path class="st11" d="M77.83,108.86c0,0,0.01,0.03,0.02,0.06c0.02,0.03,0.04,0.06,0.07,0.09c0.03,0.03,0.07,0.04,0.11,0.05
							c0.03,0.01,0.06,0,0.06,0s-0.01-0.03-0.02-0.06c-0.02-0.03-0.04-0.06-0.08-0.09c-0.03-0.03-0.07-0.04-0.11-0.05
							C77.86,108.86,77.83,108.86,77.83,108.86z"/>
					</g>
				</g>
				<g>
					<g>
						<path class="st11" d="M81.05,111.96c0,0,0.01,0.03,0.02,0.06c0.02,0.03,0.04,0.06,0.07,0.09c0.03,0.03,0.07,0.04,0.11,0.05
							c0.03,0.01,0.06,0,0.06,0s-0.01-0.03-0.02-0.06c-0.02-0.03-0.04-0.06-0.08-0.09c-0.03-0.02-0.07-0.04-0.11-0.05
							C81.08,111.96,81.05,111.96,81.05,111.96z"/>
					</g>
				</g>
				<g>
					<g>
						<path class="st11" d="M77.4,110.34c0,0,0.01,0.03,0.02,0.06c0.02,0.03,0.04,0.06,0.07,0.09c0.03,0.02,0.07,0.04,0.11,0.05
							c0.03,0.01,0.06,0,0.06,0s-0.01-0.03-0.02-0.06c-0.02-0.03-0.04-0.06-0.07-0.09c-0.03-0.02-0.07-0.04-0.11-0.05
							C77.43,110.34,77.4,110.34,77.4,110.34z"/>
					</g>
				</g>
				<g>
					<g>
						<path class="st11" d="M78.89,111.29c0,0,0.01,0.03,0.02,0.06c0.02,0.03,0.04,0.06,0.07,0.09c0.03,0.02,0.07,0.04,0.11,0.05
							c0.03,0.01,0.06,0,0.06,0s-0.01-0.03-0.02-0.06c-0.02-0.03-0.04-0.06-0.07-0.09c-0.03-0.03-0.07-0.04-0.11-0.05
							C78.91,111.29,78.89,111.29,78.89,111.29z"/>
					</g>
				</g>
				<g>
					<g>
						<path class="st11" d="M77.53,111.53c0,0,0.01,0.03,0.02,0.06c0.02,0.03,0.04,0.06,0.08,0.09c0.03,0.03,0.07,0.04,0.11,0.05
							c0.03,0.01,0.06,0,0.06,0s-0.01-0.03-0.02-0.06c-0.02-0.03-0.04-0.06-0.07-0.09c-0.03-0.02-0.07-0.04-0.11-0.05
							C77.56,111.53,77.53,111.53,77.53,111.53z"/>
					</g>
				</g>
				<g>
					<g>
						<path class="st11" d="M76.22,111.38c0,0,0.01,0.03,0.03,0.05c0.02,0.03,0.05,0.05,0.09,0.07c0.04,0.02,0.08,0.03,0.11,0.03
							c0.03,0,0.06-0.01,0.06-0.01s-0.01-0.03-0.03-0.05c-0.02-0.03-0.05-0.05-0.09-0.07c-0.04-0.02-0.08-0.03-0.11-0.03
							C76.24,111.38,76.22,111.38,76.22,111.38z"/>
					</g>
				</g>
				<g>
					<g>
						<path class="st11" d="M78.67,108.21c0,0,0,0.03,0.01,0.06c0.01,0.03,0.03,0.07,0.06,0.1c0.03,0.03,0.06,0.05,0.1,0.07
							c0.03,0.01,0.06,0.02,0.06,0.02s0-0.03-0.01-0.06c-0.01-0.03-0.03-0.07-0.06-0.1c-0.03-0.03-0.06-0.05-0.1-0.07
							C78.69,108.21,78.67,108.21,78.67,108.21z"/>
					</g>
				</g>
				<g>
					<g>
						<path class="st11" d="M79.58,110.18c0,0,0,0.03,0.01,0.06c0.01,0.03,0.03,0.07,0.06,0.1c0.03,0.03,0.06,0.05,0.1,0.07
							c0.03,0.01,0.06,0.02,0.06,0.02s0-0.03-0.01-0.06c-0.01-0.03-0.03-0.07-0.06-0.1c-0.03-0.03-0.06-0.05-0.1-0.07
							C79.61,110.18,79.58,110.18,79.58,110.18z"/>
					</g>
				</g>
				<g>
					<g>
						<path class="st11" d="M79.81,109.06c0,0,0,0.03,0.01,0.06c0.01,0.03,0.03,0.07,0.06,0.1c0.03,0.03,0.06,0.05,0.1,0.07
							c0.03,0.01,0.06,0.02,0.06,0.02s0-0.03-0.01-0.06c-0.01-0.03-0.03-0.07-0.06-0.1c-0.03-0.03-0.06-0.05-0.1-0.07
							C79.83,109.06,79.81,109.06,79.81,109.06z"/>
					</g>
				</g>
				<g>
					<g>
						<path class="st11" d="M75.94,112.56c0,0,0.02,0.02,0.04,0.04c0.03,0.02,0.07,0.04,0.11,0.05c0.04,0.01,0.08,0.01,0.12,0
							c0.03-0.01,0.06-0.02,0.06-0.02s-0.02-0.02-0.04-0.04c-0.03-0.02-0.07-0.04-0.11-0.05c-0.04-0.01-0.08-0.01-0.12,0
							C75.96,112.55,75.94,112.56,75.94,112.56z"/>
					</g>
				</g>
				<g>
					<g>
						<path class="st11" d="M79.27,113.26c0,0,0.02,0.02,0.04,0.04c0.03,0.02,0.07,0.04,0.11,0.05c0.04,0.01,0.08,0.01,0.12,0
							c0.03-0.01,0.06-0.02,0.06-0.02s-0.02-0.02-0.04-0.04c-0.03-0.02-0.07-0.04-0.11-0.05c-0.04-0.01-0.08-0.01-0.12,0
							C79.29,113.25,79.27,113.26,79.27,113.26z"/>
					</g>
				</g>
				<g>
					<g>
						<path class="st11" d="M78.19,112.5c0,0,0.02,0.02,0.04,0.04c0.03,0.02,0.07,0.04,0.11,0.05c0.04,0.01,0.08,0.01,0.12,0
							c0.03-0.01,0.06-0.02,0.06-0.02s-0.02-0.02-0.04-0.04c-0.03-0.02-0.07-0.04-0.11-0.05c-0.04-0.01-0.08-0.01-0.12,0
							C78.22,112.49,78.19,112.5,78.19,112.5z"/>
					</g>
				</g>
				<g>
					<g>
						<path class="st11" d="M75.38,109.26c0,0,0.01,0.03,0.03,0.06c0.02,0.03,0.05,0.06,0.08,0.08c0.04,0.02,0.08,0.04,0.11,0.04
							c0.03,0,0.06,0,0.06,0s-0.01-0.03-0.03-0.06c-0.02-0.03-0.05-0.06-0.08-0.08c-0.04-0.02-0.08-0.03-0.11-0.04
							C75.4,109.26,75.38,109.26,75.38,109.26z"/>
					</g>
				</g>
				<g>
					<g>
						<path class="st11" d="M76.49,108.06c0,0,0.01,0.03,0.03,0.06c0.02,0.03,0.05,0.06,0.08,0.08c0.04,0.02,0.08,0.04,0.11,0.04
							c0.03,0,0.06,0,0.06,0s-0.01-0.03-0.03-0.06c-0.02-0.03-0.05-0.06-0.08-0.08c-0.04-0.02-0.08-0.03-0.11-0.04
							C76.51,108.05,76.49,108.06,76.49,108.06z"/>
					</g>
				</g>
			</g>
		</g>
		<g>
			<g>
				<g>
					<path class="st7" d="M62.63,105.75C62.63,105.75,62.63,105.75,62.63,105.75l0.02-0.02c1.17-0.83,2.42-0.97,3.3,0.42
						C64.93,107.24,63.57,106.75,62.63,105.75z"/>
					<g>
						<path class="st8" d="M62.63,105.75c0.93,0.36,2.15,0.6,3.32,0.4C64.93,107.24,63.57,106.75,62.63,105.75z"/>
					</g>
				</g>
				<g>
					<path class="st7" d="M67.48,102.03C67.48,102.03,67.48,102.03,67.48,102.03l-0.02,0.01c-1.12,0.9-1.6,2.06-0.51,3.29
						C68.28,104.65,68.18,103.21,67.48,102.03z"/>
					<g>
						<path class="st8" d="M67.48,102.03c0.09,0.99-0.02,2.23-0.53,3.3C68.28,104.65,68.18,103.21,67.48,102.03z"/>
					</g>
				</g>
				<g>
					<path class="st7" d="M64.01,102.62C64.01,102.62,64.01,102.62,64.01,102.62l0.03,0c1.42,0.2,2.44,0.94,2.13,2.55
						C64.68,105.28,64.02,104,64.01,102.62z"/>
					<g>
						<path class="st8" d="M64.01,102.62c0.44,0.9,1.17,1.9,2.16,2.55C64.68,105.28,64.02,104,64.01,102.62z"/>
					</g>
				</g>
				<g>
					<path class="st7" d="M62.63,104.72C62.63,104.72,62.63,104.72,62.63,104.72l0.02-0.02c1.17-0.83,2.42-0.97,3.3,0.42
						C64.94,106.22,63.58,105.73,62.63,104.72z"/>
					<g>
						<path class="st8" d="M62.63,104.72c0.93,0.36,2.15,0.6,3.32,0.4C64.94,106.22,63.58,105.73,62.63,104.72z"/>
					</g>
				</g>
				<g>
					<path class="st7" d="M66.51,101.81C66.51,101.81,66.51,101.81,66.51,101.81l-0.02,0.01c-1.12,0.9-1.6,2.06-0.51,3.29
						C67.31,104.43,67.21,102.99,66.51,101.81z"/>
					<g>
						<path class="st8" d="M66.51,101.81c0.09,0.99-0.02,2.23-0.53,3.3C67.31,104.43,67.21,102.99,66.51,101.81z"/>
					</g>
				</g>
				<path class="st9" d="M65.99,103.28c-0.97,0.5-3.14,2.6-3.12,3.66c0.04,1.52,2.46,2.76,3.61,3.4c0.86,0.48,2.43,1.07,3.53,0.53
					c1.08-0.53,0.83-2.47,0.75-3.46c-0.12-1.34-0.85-2.98-1.29-3.77c-0.81-1.44-2.3-1.02-3.32-0.44L65.99,103.28z"/>
				<g>
					<path class="st10" d="M70,110.86c-1.09,0.53-2.67-0.05-3.53-0.53c-1.14-0.64-3.57-1.88-3.61-3.4c0-0.15,0.04-0.32,0.11-0.5l0,0
						c0,0-0.14,1.17,2.95,2.98c0.32,0.19,2.8,1.67,4.28,1.33C70.14,110.79,70.07,110.83,70,110.86z"/>
				</g>
				<g>
					<g>
						<path class="st11" d="M64.25,106.09c0,0,0,0.03,0,0.05c0,0.03,0.02,0.06,0.04,0.08c0.02,0.02,0.05,0.04,0.08,0.05
							c0.03,0.01,0.05,0,0.05,0s0-0.03,0-0.05c0-0.03-0.02-0.06-0.04-0.08c-0.02-0.02-0.05-0.04-0.08-0.05
							C64.28,106.09,64.25,106.09,64.25,106.09z"/>
					</g>
				</g>
				<g>
					<g>
						<path class="st11" d="M69.24,110.37c0,0,0,0.03,0,0.05c0,0.03,0.02,0.06,0.04,0.08c0.02,0.02,0.05,0.04,0.08,0.05
							c0.03,0.01,0.05,0,0.05,0s0-0.03,0-0.05c0-0.03-0.02-0.06-0.04-0.08c-0.02-0.02-0.05-0.04-0.08-0.05
							C69.26,110.37,69.24,110.37,69.24,110.37z"/>
					</g>
				</g>
				<g>
					<g>
						<path class="st11" d="M68.93,109.38c0,0,0,0.03,0,0.05c0,0.03,0.02,0.06,0.04,0.08c0.02,0.02,0.05,0.04,0.08,0.05
							c0.03,0.01,0.05,0,0.05,0s0-0.03,0-0.05c0-0.03-0.02-0.06-0.04-0.08c-0.02-0.02-0.05-0.04-0.08-0.05
							C68.96,109.38,68.93,109.38,68.93,109.38z"/>
					</g>
				</g>
				<g>
					<g>
						<path class="st11" d="M65.7,106.02c0,0,0,0.03,0,0.05c0,0.03,0.02,0.06,0.04,0.08c0.02,0.02,0.05,0.04,0.08,0.05
							c0.03,0.01,0.05,0,0.05,0s0-0.03,0-0.05c0-0.03-0.02-0.06-0.04-0.08c-0.02-0.02-0.05-0.04-0.08-0.05
							C65.72,106.02,65.7,106.02,65.7,106.02z"/>
					</g>
				</g>
				<g>
					<g>
						<path class="st11" d="M66.48,105.03c0,0,0,0.03,0,0.05c0,0.03,0.02,0.06,0.04,0.08c0.02,0.02,0.05,0.04,0.08,0.05
							c0.03,0.01,0.05,0,0.05,0s0-0.03,0-0.05c0-0.03-0.02-0.06-0.04-0.08c-0.02-0.02-0.05-0.04-0.08-0.05
							C66.5,105.02,66.48,105.03,66.48,105.03z"/>
					</g>
				</g>
				<g>
					<g>
						<path class="st11" d="M68.21,106.53c0,0,0,0.03,0,0.05c0,0.03,0.02,0.06,0.04,0.08c0.02,0.02,0.05,0.04,0.08,0.05
							c0.03,0.01,0.05,0,0.05,0s0-0.03,0-0.05c0-0.03-0.02-0.06-0.04-0.08c-0.02-0.02-0.05-0.04-0.08-0.05
							C68.23,106.52,68.21,106.53,68.21,106.53z"/>
					</g>
				</g>
				<g>
					<g>
						<path class="st11" d="M63.83,107.1c0,0,0,0.03,0,0.05c0,0.03,0.02,0.06,0.04,0.08c0.02,0.02,0.05,0.04,0.08,0.05
							c0.03,0.01,0.05,0,0.05,0s0-0.03,0-0.05c0-0.03-0.02-0.06-0.04-0.08c-0.02-0.02-0.05-0.04-0.08-0.05
							C63.86,107.1,63.83,107.1,63.83,107.1z"/>
					</g>
				</g>
				<g>
					<g>
						<path class="st11" d="M65.58,109.17c0,0,0,0.03,0,0.05c0,0.03,0.02,0.06,0.04,0.08c0.02,0.02,0.05,0.04,0.08,0.05
							c0.03,0.01,0.05,0,0.05,0s0-0.03,0-0.05c0-0.03-0.02-0.06-0.04-0.08c-0.02-0.02-0.05-0.04-0.08-0.05
							C65.6,109.17,65.58,109.17,65.58,109.17z"/>
					</g>
				</g>
				<g>
					<g>
						<path class="st11" d="M69.92,108.2c0,0-0.01,0.03-0.01,0.06c0,0.03,0,0.07,0.02,0.11c0.02,0.04,0.04,0.07,0.07,0.09
							c0.03,0.02,0.05,0.03,0.05,0.03s0.01-0.03,0.01-0.06c0-0.03,0-0.07-0.02-0.11c-0.02-0.04-0.04-0.07-0.07-0.09
							C69.95,108.21,69.92,108.2,69.92,108.2z"/>
					</g>
				</g>
				<g>
					<g>
						<path class="st11" d="M68.25,103.53c0,0-0.01,0.02-0.02,0.05c-0.01,0.03,0,0.06,0.01,0.09c0.01,0.03,0.04,0.06,0.06,0.07
							c0.03,0.02,0.05,0.02,0.05,0.02s0.01-0.02,0.02-0.05c0.01-0.03,0-0.06-0.01-0.09c-0.01-0.03-0.04-0.06-0.06-0.07
							C68.27,103.54,68.25,103.53,68.25,103.53z"/>
					</g>
				</g>
				<g>
					<g>
						<path class="st11" d="M67.81,105.04c0,0,0,0.03,0,0.07c0,0.04,0.02,0.08,0.04,0.12c0.02,0.04,0.06,0.07,0.09,0.09
							c0.03,0.02,0.06,0.03,0.06,0.03s0-0.03,0-0.07c0-0.04-0.02-0.08-0.04-0.12c-0.02-0.04-0.06-0.07-0.09-0.09
							C67.84,105.05,67.81,105.04,67.81,105.04z"/>
					</g>
				</g>
				<g>
					<g>
						<path class="st11" d="M69.98,109.37c0,0,0,0.03,0,0.07c0,0.04,0.02,0.08,0.04,0.12c0.02,0.04,0.06,0.07,0.09,0.09
							c0.03,0.02,0.06,0.03,0.06,0.03s0-0.03,0-0.07c0-0.04-0.02-0.08-0.04-0.12c-0.02-0.04-0.06-0.07-0.09-0.09
							C70.01,109.37,69.98,109.37,69.98,109.37z"/>
					</g>
				</g>
				<g>
					<g>
						<path class="st11" d="M66.84,106.4c0,0,0,0.03,0,0.07c0,0.04,0.02,0.08,0.04,0.12c0.02,0.04,0.06,0.07,0.09,0.09
							c0.03,0.02,0.06,0.03,0.06,0.03s0-0.03,0-0.07c0-0.04-0.02-0.08-0.04-0.12c-0.02-0.04-0.06-0.07-0.09-0.09
							C66.87,106.41,66.84,106.4,66.84,106.4z"/>
					</g>
				</g>
				<g>
					<g>
						<path class="st11" d="M68.01,107.9c0,0,0,0.03,0,0.07c0,0.04,0.02,0.08,0.04,0.12c0.02,0.04,0.06,0.07,0.09,0.09
							c0.03,0.02,0.06,0.03,0.06,0.03s0-0.03,0-0.07c0-0.04-0.02-0.08-0.04-0.12c-0.02-0.04-0.06-0.07-0.09-0.09
							C68.04,107.91,68.01,107.9,68.01,107.9z"/>
					</g>
				</g>
				<g>
					<g>
						<path class="st11" d="M66.54,107.66c0,0,0,0.03,0,0.07c0,0.04,0.02,0.08,0.04,0.12c0.02,0.04,0.06,0.07,0.09,0.09
							c0.03,0.02,0.06,0.03,0.06,0.03s0-0.03,0-0.07c0-0.04-0.02-0.08-0.04-0.12c-0.02-0.04-0.06-0.07-0.09-0.09
							C66.57,107.67,66.54,107.66,66.54,107.66z"/>
					</g>
				</g>
				<g>
					<g>
						<path class="st11" d="M65.26,107.03c0,0,0,0.03,0.01,0.07c0.01,0.04,0.04,0.07,0.07,0.11c0.03,0.03,0.07,0.06,0.11,0.07
							c0.04,0.01,0.07,0.01,0.07,0.01s0-0.03-0.01-0.07c-0.01-0.04-0.04-0.07-0.07-0.11c-0.03-0.03-0.07-0.06-0.11-0.07
							C65.29,107.04,65.26,107.03,65.26,107.03z"/>
					</g>
				</g>
				<g>
					<g>
						<path class="st11" d="M68.9,104.68c0,0-0.01,0.03-0.01,0.07c0,0.04,0.01,0.08,0.02,0.12c0.02,0.04,0.05,0.08,0.07,0.1
							c0.03,0.02,0.06,0.04,0.06,0.04s0.01-0.03,0.01-0.07c0-0.04-0.01-0.08-0.02-0.12c-0.02-0.04-0.05-0.08-0.07-0.1
							C68.93,104.69,68.9,104.68,68.9,104.68z"/>
					</g>
				</g>
				<g>
					<g>
						<path class="st11" d="M69.13,107.02c0,0-0.01,0.03-0.01,0.07c0,0.04,0.01,0.08,0.02,0.12c0.02,0.04,0.04,0.08,0.07,0.1
							c0.03,0.02,0.06,0.04,0.06,0.04s0.01-0.03,0.01-0.07c0-0.04-0.01-0.08-0.02-0.12c-0.02-0.04-0.05-0.08-0.07-0.1
							C69.15,107.03,69.13,107.02,69.13,107.02z"/>
					</g>
				</g>
				<g>
					<g>
						<path class="st11" d="M69.76,105.96c0,0-0.01,0.03-0.01,0.07c0,0.04,0.01,0.08,0.02,0.12c0.02,0.04,0.04,0.08,0.07,0.1
							c0.03,0.02,0.06,0.04,0.06,0.04s0.01-0.03,0.01-0.07c0-0.04-0.01-0.08-0.02-0.12c-0.02-0.04-0.05-0.08-0.07-0.1
							C69.79,105.97,69.76,105.96,69.76,105.96z"/>
					</g>
				</g>
				<g>
					<g>
						<path class="st11" d="M64.55,108.14c0,0,0.01,0.03,0.03,0.06c0.02,0.03,0.05,0.06,0.09,0.09c0.04,0.02,0.08,0.04,0.12,0.04
							c0.04,0,0.07,0,0.07,0s-0.01-0.03-0.03-0.06c-0.02-0.03-0.05-0.06-0.09-0.09c-0.04-0.02-0.08-0.04-0.12-0.04
							C64.58,108.13,64.55,108.14,64.55,108.14z"/>
					</g>
				</g>
				<g>
					<g>
						<path class="st11" d="M67.69,110.05c0,0,0.01,0.03,0.03,0.06c0.02,0.03,0.05,0.06,0.09,0.09c0.04,0.02,0.08,0.04,0.12,0.04
							c0.04,0,0.07,0,0.07,0s-0.01-0.03-0.03-0.06c-0.02-0.03-0.05-0.06-0.09-0.09c-0.04-0.02-0.08-0.04-0.12-0.04
							C67.72,110.05,67.69,110.05,67.69,110.05z"/>
					</g>
				</g>
				<g>
					<g>
						<path class="st11" d="M66.87,108.89c0,0,0.01,0.03,0.03,0.06c0.02,0.03,0.05,0.06,0.09,0.09c0.04,0.02,0.08,0.04,0.12,0.04
							c0.04,0,0.07,0,0.07,0s-0.01-0.03-0.03-0.06c-0.02-0.03-0.05-0.06-0.09-0.09c-0.04-0.02-0.08-0.04-0.12-0.04
							C66.9,108.88,66.87,108.89,66.87,108.89z"/>
					</g>
				</g>
				<g>
					<g>
						<path class="st11" d="M65.17,104.56c0,0,0,0.03,0.01,0.07c0.01,0.04,0.03,0.08,0.06,0.11c0.03,0.03,0.07,0.06,0.1,0.08
							c0.03,0.02,0.06,0.02,0.06,0.02s0-0.03-0.01-0.07c-0.01-0.04-0.03-0.08-0.06-0.11c-0.03-0.03-0.07-0.06-0.1-0.08
							C65.19,104.57,65.17,104.56,65.17,104.56z"/>
					</g>
				</g>
				<g>
					<g>
						<path class="st11" d="M66.73,103.74c0,0,0,0.03,0.01,0.07c0.01,0.04,0.03,0.08,0.06,0.11c0.03,0.03,0.06,0.06,0.1,0.08
							c0.03,0.02,0.06,0.02,0.06,0.02s0-0.03-0.01-0.07c-0.01-0.04-0.03-0.08-0.06-0.11c-0.03-0.03-0.07-0.06-0.1-0.08
							C66.76,103.74,66.73,103.74,66.73,103.74z"/>
					</g>
				</g>
			</g>
		</g>
		<g>
			<g>
				<g>
					<path class="st7" d="M73.21,115.9C73.21,115.9,73.21,115.9,73.21,115.9l0.03,0c1.42-0.19,2.6,0.26,2.73,1.89
						C74.57,118.29,73.59,117.23,73.21,115.9z"/>
					<g>
						<path class="st8" d="M73.21,115.9c0.66,0.75,1.63,1.52,2.76,1.89C74.57,118.29,73.59,117.23,73.21,115.9z"/>
					</g>
				</g>
				<g>
					<path class="st7" d="M79.23,114.83C79.23,114.83,79.23,114.83,79.23,114.83l-0.03,0c-1.41,0.28-2.37,1.09-1.97,2.68
						C78.73,117.53,79.31,116.21,79.23,114.83z"/>
					<g>
						<path class="st8" d="M79.23,114.83c-0.38,0.92-1.05,1.97-2,2.68C78.73,117.53,79.31,116.21,79.23,114.83z"/>
					</g>
				</g>
				<g>
					<path class="st7" d="M75.89,113.76C75.89,113.76,75.89,113.76,75.89,113.76l0.02,0.01c1.17,0.83,1.73,1.96,0.71,3.25
						C75.25,116.43,75.26,114.99,75.89,113.76z"/>
					<g>
						<path class="st8" d="M75.89,113.76c-0.03,1,0.16,2.23,0.73,3.26C75.25,116.43,75.26,114.99,75.89,113.76z"/>
					</g>
				</g>
				<g>
					<path class="st7" d="M73.69,114.99C73.69,114.99,73.69,114.99,73.69,114.99l0.03-0.01c1.42-0.19,2.6,0.26,2.74,1.89
						C75.05,117.38,74.07,116.32,73.69,114.99z"/>
					<g>
						<path class="st8" d="M73.69,114.99c0.66,0.75,1.63,1.52,2.76,1.89C75.05,117.38,74.07,116.32,73.69,114.99z"/>
					</g>
				</g>
				<g>
					<path class="st7" d="M78.47,114.19C78.47,114.19,78.47,114.19,78.47,114.19l-0.03,0c-1.41,0.28-2.37,1.09-1.97,2.68
						C77.97,116.89,78.55,115.57,78.47,114.19z"/>
					<g>
						<path class="st8" d="M78.47,114.19c-0.38,0.92-1.05,1.97-2,2.68C77.97,116.89,78.55,115.57,78.47,114.19z"/>
					</g>
				</g>
				<path class="st9" d="M77.33,115.26c-1.09-0.01-3.99,0.85-4.45,1.8c-0.67,1.36,0.91,3.58,1.63,4.68c0.54,0.82,1.67,2.07,2.88,2.1
					c1.2,0.03,1.88-1.8,2.26-2.72c0.51-1.25,0.63-3.03,0.6-3.94c-0.05-1.65-1.57-1.96-2.74-1.92L77.33,115.26z"/>
				<g>
					<path class="st10" d="M77.4,123.84c-1.22-0.03-2.34-1.28-2.88-2.1c-0.72-1.09-2.3-3.31-1.63-4.68
						c0.07-0.13,0.18-0.26,0.33-0.39l0,0c0,0-0.67,0.97,1.24,4c0.2,0.31,1.71,2.77,3.18,3.15C77.55,123.83,77.47,123.84,77.4,123.84
						z"/>
				</g>
				<g>
					<g>
						<path class="st11" d="M74.5,116.95c0,0-0.01,0.02-0.02,0.05c-0.01,0.03-0.01,0.06,0,0.09c0.01,0.03,0.03,0.06,0.05,0.08
							c0.02,0.02,0.05,0.03,0.05,0.03s0.01-0.02,0.02-0.05c0.01-0.03,0.01-0.06,0-0.09c-0.01-0.03-0.03-0.06-0.05-0.08
							C74.52,116.96,74.5,116.95,74.5,116.95z"/>
					</g>
				</g>
				<g>
					<g>
						<path class="st11" d="M76.94,123.05c0,0-0.01,0.02-0.02,0.05c-0.01,0.03-0.01,0.06,0,0.09c0.01,0.03,0.03,0.06,0.05,0.08
							c0.02,0.02,0.05,0.03,0.05,0.03s0.01-0.02,0.02-0.05c0.01-0.03,0.01-0.06,0-0.09c-0.01-0.03-0.03-0.06-0.05-0.08
							C76.96,123.06,76.94,123.05,76.94,123.05z"/>
					</g>
				</g>
				<g>
					<g>
						<path class="st11" d="M77.13,122.03c0,0-0.01,0.02-0.02,0.05c-0.01,0.03-0.01,0.06,0,0.09c0.01,0.03,0.03,0.06,0.05,0.08
							c0.02,0.02,0.05,0.03,0.05,0.03s0.01-0.02,0.02-0.05c0.01-0.03,0.01-0.06,0-0.09c-0.01-0.03-0.03-0.06-0.05-0.08
							C77.15,122.04,77.13,122.03,77.13,122.03z"/>
					</g>
				</g>
				<g>
					<g>
						<path class="st11" d="M75.81,117.56c0,0-0.01,0.02-0.02,0.05c-0.01,0.03-0.01,0.06,0,0.09c0.01,0.03,0.03,0.06,0.05,0.08
							c0.02,0.02,0.05,0.03,0.05,0.03s0.01-0.02,0.02-0.05c0.01-0.03,0.01-0.06,0-0.09c-0.01-0.03-0.03-0.06-0.05-0.08
							C75.84,117.57,75.81,117.56,75.81,117.56z"/>
					</g>
				</g>
				<g>
					<g>
						<path class="st11" d="M76.96,117.03c0,0-0.01,0.02-0.02,0.05c-0.01,0.03-0.01,0.06,0,0.09c0.01,0.03,0.03,0.06,0.05,0.08
							c0.02,0.02,0.05,0.03,0.05,0.03s0.01-0.02,0.02-0.05c0.01-0.03,0.01-0.06,0-0.09c-0.01-0.03-0.03-0.06-0.05-0.08
							C76.98,117.04,76.96,117.03,76.96,117.03z"/>
					</g>
				</g>
				<g>
					<g>
						<path class="st11" d="M77.8,119.16c0,0-0.01,0.02-0.02,0.05c-0.01,0.03-0.01,0.06,0,0.09c0.01,0.03,0.03,0.06,0.05,0.08
							c0.02,0.02,0.05,0.03,0.05,0.03s0.01-0.02,0.02-0.05c0.01-0.03,0.01-0.06,0-0.09c-0.01-0.03-0.03-0.06-0.05-0.08
							C77.83,119.17,77.8,119.16,77.8,119.16z"/>
					</g>
				</g>
				<g>
					<g>
						<path class="st11" d="M73.66,117.66c0,0-0.01,0.02-0.02,0.05c-0.01,0.03-0.01,0.06,0,0.09c0.01,0.03,0.03,0.06,0.05,0.08
							c0.02,0.02,0.05,0.03,0.05,0.03s0.01-0.02,0.02-0.05c0.01-0.03,0.01-0.06,0-0.09c-0.01-0.03-0.03-0.06-0.05-0.08
							C73.68,117.67,73.66,117.66,73.66,117.66z"/>
					</g>
				</g>
				<g>
					<g>
						<path class="st11" d="M74.25,120.29c0,0-0.01,0.02-0.02,0.05c-0.01,0.03-0.01,0.06,0,0.09c0.01,0.03,0.03,0.06,0.05,0.08
							c0.02,0.02,0.05,0.03,0.05,0.03s0.01-0.02,0.03-0.05c0.01-0.03,0.01-0.06,0-0.09c-0.01-0.03-0.03-0.06-0.05-0.08
							C74.27,120.3,74.25,120.29,74.25,120.29z"/>
					</g>
				</g>
				<g>
					<g>
						<path class="st11" d="M78.55,121.44c0,0-0.02,0.02-0.04,0.05c-0.02,0.03-0.03,0.07-0.04,0.11c0,0.04,0,0.08,0.02,0.11
							c0.01,0.03,0.03,0.05,0.03,0.05s0.02-0.02,0.04-0.05c0.02-0.03,0.03-0.07,0.04-0.11c0-0.04,0-0.08-0.02-0.11
							C78.57,121.46,78.55,121.44,78.55,121.44z"/>
					</g>
				</g>
				<g>
					<g>
						<path class="st11" d="M79.22,116.52c0,0-0.02,0.01-0.04,0.04c-0.02,0.02-0.03,0.06-0.03,0.09c0,0.03,0.01,0.07,0.02,0.09
							c0.01,0.03,0.03,0.04,0.03,0.04c0,0,0.02-0.01,0.04-0.04c0.02-0.02,0.03-0.06,0.03-0.09c0-0.03-0.01-0.07-0.02-0.09
							C79.24,116.54,79.22,116.52,79.22,116.52z"/>
					</g>
				</g>
				<g>
					<g>
						<path class="st11" d="M78.14,117.67c0,0-0.02,0.02-0.03,0.06c-0.01,0.04-0.02,0.08-0.02,0.13c0,0.04,0.02,0.09,0.04,0.12
							c0.02,0.03,0.04,0.05,0.04,0.05s0.02-0.02,0.03-0.06c0.01-0.04,0.02-0.08,0.02-0.13c0-0.04-0.02-0.09-0.04-0.12
							C78.16,117.69,78.14,117.67,78.14,117.67z"/>
					</g>
				</g>
				<g>
					<g>
						<path class="st11" d="M78.07,122.5c0,0-0.02,0.02-0.03,0.06c-0.01,0.04-0.02,0.08-0.02,0.13c0,0.04,0.02,0.09,0.04,0.12
							c0.02,0.03,0.04,0.05,0.04,0.05s0.02-0.02,0.03-0.06c0.01-0.04,0.02-0.08,0.02-0.13c0-0.04-0.02-0.09-0.04-0.12
							C78.09,122.52,78.07,122.5,78.07,122.5z"/>
					</g>
				</g>
				<g>
					<g>
						<path class="st11" d="M76.65,118.42c0,0-0.02,0.02-0.03,0.06c-0.01,0.04-0.02,0.08-0.02,0.13c0,0.04,0.02,0.09,0.04,0.12
							c0.02,0.03,0.04,0.05,0.04,0.05c0,0,0.02-0.02,0.03-0.06c0.01-0.04,0.02-0.08,0.02-0.13c0-0.04-0.02-0.09-0.04-0.12
							C76.67,118.44,76.65,118.42,76.65,118.42z"/>
					</g>
				</g>
				<g>
					<g>
						<path class="st11" d="M77,120.3c0,0-0.02,0.02-0.03,0.06c-0.01,0.04-0.02,0.08-0.02,0.13c0,0.04,0.02,0.09,0.04,0.12
							c0.02,0.03,0.04,0.05,0.04,0.05s0.02-0.02,0.03-0.06c0.01-0.04,0.02-0.08,0.02-0.13c0-0.04-0.02-0.09-0.04-0.12
							C77.02,120.32,77,120.3,77,120.3z"/>
					</g>
				</g>
				<g>
					<g>
						<path class="st11" d="M75.8,119.4c0,0-0.02,0.02-0.03,0.06c-0.01,0.04-0.02,0.08-0.02,0.13c0,0.04,0.02,0.09,0.04,0.12
							c0.02,0.03,0.04,0.05,0.04,0.05s0.02-0.02,0.03-0.06c0.01-0.04,0.02-0.08,0.02-0.13c0-0.04-0.02-0.09-0.04-0.12
							C75.82,119.42,75.8,119.4,75.8,119.4z"/>
					</g>
				</g>
				<g>
					<g>
						<path class="st11" d="M74.95,118.25c0,0-0.01,0.03-0.02,0.06c-0.01,0.04,0,0.08,0.01,0.13c0.01,0.04,0.04,0.08,0.06,0.11
							c0.03,0.03,0.05,0.04,0.05,0.04s0.01-0.03,0.02-0.06c0.01-0.04,0-0.08-0.01-0.13c-0.01-0.04-0.04-0.08-0.06-0.11
							C74.98,118.27,74.95,118.25,74.95,118.25z"/>
					</g>
				</g>
				<g>
					<g>
						<path class="st11" d="M79.28,117.84c0,0-0.02,0.02-0.04,0.05c-0.02,0.03-0.03,0.08-0.04,0.12c0,0.04,0,0.09,0.02,0.13
							c0.01,0.03,0.03,0.06,0.03,0.06s0.02-0.02,0.04-0.05c0.02-0.03,0.03-0.08,0.04-0.12c0-0.04,0-0.09-0.02-0.13
							C79.29,117.87,79.28,117.84,79.28,117.84z"/>
					</g>
				</g>
				<g>
					<g>
						<path class="st11" d="M78.39,120.03c0,0-0.02,0.02-0.04,0.05c-0.02,0.03-0.03,0.08-0.04,0.12c0,0.04,0,0.09,0.02,0.13
							c0.01,0.04,0.03,0.06,0.03,0.06s0.02-0.02,0.04-0.05c0.02-0.03,0.03-0.08,0.04-0.12c0-0.04,0-0.09-0.02-0.13
							C78.41,120.05,78.39,120.03,78.39,120.03z"/>
					</g>
				</g>
				<g>
					<g>
						<path class="st11" d="M79.44,119.38c0,0-0.02,0.02-0.04,0.05c-0.02,0.03-0.03,0.08-0.04,0.12c0,0.04,0,0.09,0.02,0.13
							c0.01,0.03,0.03,0.06,0.03,0.06s0.02-0.02,0.04-0.05c0.02-0.03,0.03-0.08,0.04-0.12c0-0.04,0-0.09-0.02-0.13
							C79.46,119.4,79.44,119.38,79.44,119.38z"/>
					</g>
				</g>
				<g>
					<g>
						<path class="st11" d="M73.81,118.9c0,0-0.01,0.03,0,0.07c0,0.04,0.02,0.08,0.04,0.12c0.02,0.04,0.05,0.07,0.09,0.09
							c0.03,0.02,0.06,0.03,0.06,0.03s0.01-0.03,0-0.07c0-0.04-0.02-0.08-0.04-0.12c-0.02-0.04-0.05-0.07-0.09-0.09
							C73.84,118.91,73.81,118.9,73.81,118.9z"/>
					</g>
				</g>
				<g>
					<g>
						<path class="st11" d="M75.72,122.05c0,0-0.01,0.03,0,0.07c0,0.04,0.02,0.08,0.04,0.12c0.02,0.04,0.05,0.07,0.09,0.09
							c0.03,0.02,0.06,0.03,0.06,0.03s0.01-0.03,0-0.07c0-0.04-0.02-0.08-0.04-0.12c-0.02-0.04-0.05-0.07-0.09-0.09
							C75.75,122.06,75.72,122.05,75.72,122.05z"/>
					</g>
				</g>
				<g>
					<g>
						<path class="st11" d="M75.53,120.64c0,0-0.01,0.03,0,0.07c0,0.04,0.02,0.08,0.04,0.12c0.02,0.04,0.05,0.07,0.09,0.09
							c0.03,0.02,0.06,0.03,0.06,0.03s0.01-0.03,0-0.07c0-0.04-0.02-0.08-0.04-0.12c-0.02-0.04-0.05-0.07-0.09-0.09
							C75.56,120.65,75.53,120.64,75.53,120.64z"/>
					</g>
				</g>
				<g>
					<g>
						<path class="st11" d="M76.01,116.02c0,0-0.01,0.03-0.02,0.06c-0.01,0.04-0.01,0.08,0,0.13c0.01,0.04,0.03,0.09,0.05,0.12
							c0.02,0.03,0.05,0.05,0.05,0.05s0.01-0.03,0.02-0.06c0.01-0.04,0.01-0.08,0-0.13c-0.01-0.04-0.03-0.09-0.05-0.12
							C76.04,116.04,76.01,116.02,76.01,116.02z"/>
					</g>
				</g>
				<g>
					<g>
						<path class="st11" d="M77.78,116.01c0,0-0.01,0.03-0.02,0.06c-0.01,0.04-0.01,0.08,0,0.13c0.01,0.04,0.03,0.09,0.05,0.12
							c0.02,0.03,0.05,0.05,0.05,0.05s0.01-0.03,0.02-0.06c0.01-0.04,0.01-0.08,0-0.13c-0.01-0.04-0.03-0.09-0.05-0.12
							C77.81,116.03,77.78,116.01,77.78,116.01z"/>
					</g>
				</g>
			</g>
		</g>
		<g>
			<g>
				<g>
					<path class="st12" d="M85.47,134.26c-0.22-0.24-0.35-0.53-0.42-0.85c-0.12,0.2-0.09,0.52,0.17,0.82
						c0.08,0.1,0.25,0.28,0.45,0.43c0.06-0.03,0.13-0.06,0.2-0.09C85.71,134.47,85.57,134.37,85.47,134.26z"/>
					<path class="st12" d="M85.86,134.57c0.21-0.09,0.44-0.19,0.7-0.28c-0.12-0.15-0.89-1.19-1.32-1.04
						c-0.09,0.03-0.15,0.09-0.2,0.16c0.07,0.32,0.21,0.61,0.42,0.85C85.57,134.37,85.71,134.47,85.86,134.57z"/>
					<path class="st12" d="M79.86,99.61c-0.26,0.23-1.04,1.06-1.29,1.44C79.26,100.87,79.5,100.32,79.86,99.61z"/>
					<path class="st12" d="M79.86,99.61c0.36,0.37,0.66,0.72,0.91,1.04C80.54,100.32,80.36,100.08,79.86,99.61z"/>
					<path class="st12" d="M79.49,101.99c0.25-0.41,1.06-0.88,1.32-1.3c-0.01-0.01-0.02-0.03-0.03-0.04
						c-0.25-0.31-0.55-0.66-0.91-1.04c-0.37,0.7-0.61,1.26-1.29,1.44C78.9,101.43,79.2,101.73,79.49,101.99z"/>
				</g>
				<g>
					<path class="st11" d="M85.65,111.79c1.64,2.34,3.82,7,3.53,9.95c-0.42,4.34-1.28,5.33-3.69,9.4c-0.62,1.03-0.73,2.35-0.03,3.12
						c0.8,0.87,3.15,1.16,4.82,0c3.02-2.13,2.46-1.7,5.1-4.73c2.64-3.04,3.84-6.3,4.06-9.27c0.22-3-0.53-5.71-1.8-8.48
						c-0.6-1.11-2.6-4.55-5.4-6.63c-2.68-2.08-5.86-3.64-9.13-2.67c-1.28,0.38-1.29-0.84-3.26-2.87c-0.37,0.7-0.61,1.26-1.29,1.44
						c1.65,1.9,2.48,1.8,3.33,4.03C82.55,106.8,84.45,110.05,85.65,111.79z"/>
					<path class="st12" d="M86.58,134.31c0.08,0.27-0.06,0.46-0.24,0.52c-0.48,0.14-0.96-0.41-1.12-0.6
						c-0.35-0.42-0.28-0.87,0.03-0.98c0.43-0.15,1.2,0.89,1.32,1.04C86.57,134.3,86.57,134.3,86.58,134.31z"/>
					<g>
						<path class="st12" d="M78.57,101.05c0.33,0.37,0.63,0.68,0.92,0.94c0.25-0.41,1.06-0.88,1.32-1.3
							c-0.26-0.35-0.42-0.59-0.94-1.08C79.6,99.85,78.82,100.67,78.57,101.05z"/>
					</g>
				</g>
				<path class="st13" d="M91.39,107.53c3.62,4.25,4.93,7.83,4.47,13.49c-0.33,4.02-5.54,11.9-9.31,13.27
					c0.01,0.01,0.01,0.02,0.02,0.03c0.07,0.24-0.04,0.42-0.19,0.5c1.08,0.37,2.67,0.3,3.9-0.55c3.02-2.13,2.46-1.7,5.1-4.73
					c2.64-3.04,3.84-6.3,4.06-9.27c0.22-3-0.53-5.71-1.8-8.48c-0.6-1.11-2.6-4.55-5.4-6.63c-2.68-2.08-5.86-3.64-9.13-2.67
					c-0.11,0.03-0.21,0.05-0.3,0.06l0,0C82.82,102.54,87.33,102.76,91.39,107.53z"/>
			</g>
		</g>
		<g>
			<g>
				<path class="st12" d="M57.27,121.76c1.46-0.22,4.01,0.69,4.79,1.97c-1.6-0.68-3-0.93-4.47-0.53c-0.11-0.43-0.24-0.94-0.29-1.34
					L57.27,121.76z"/>
				<g>
					<path class="st8" d="M61,116.94C61,116.93,61,116.93,61,116.94l0.03,0.04c1.22,2.17,1.25,4.36-1.3,5.63
						C58.01,120.65,59.1,118.39,61,116.94z"/>
					<g>
						<path class="st7" d="M61,116.94c-0.78,1.54-1.41,3.62-1.27,5.66C58.01,120.65,59.1,118.39,61,116.94z"/>
					</g>
				</g>
				<path class="st14" d="M61.84,123.58c-2.13,0.05-3.3,2.4-3.77,3.47c-1.55,3.5,0.04,7.12,3.37,9.13
					c4.04,2.44,9.78,0.94,10.72-3.74c0.17-0.86,0.2-0.9,0.13-1.76c-0.09-0.99,0.65-1.19,1.03-2.17c0.59-1.51-0.25-3.42-1.25-4.9
					c-1.07-1.58-3.69-2.91-5.51-3.09c-1.86-0.18-4.23,0.41-4.69,2.99L61.84,123.58z"/>
				<path class="st15" d="M63.01,122.47c0.24-0.63,1.09-1.34,2.45-1.36c0.54-0.01,1.93-0.02,4.14,1.17
					c2.09,1.13,3.25,4.13,3.27,4.71c0.01,0.42,0.12,1.38-0.74,1.93c0,0-0.24-1.15-0.47-1.54c-0.59-1.02-1.42-2.19-2.47-2.91
					c-1.35-0.94-2.69-1.27-3.65-1.41c-2.34-0.36-2.87,0.46-2.86,0.3"/>
				<g>
					<path class="st16" d="M61.44,136.18c-1.26-0.76-2.27-1.75-2.95-2.88c0,0,2.79,2.56,5.83,2.72c3.04,0.16,5.56-0.25,7.91-3.9
						c-0.02,0.09-0.04,0.2-0.06,0.32C71.21,137.12,65.47,138.61,61.44,136.18z"/>
				</g>
			</g>
		</g>
		<g>
			<g>
				<g>
					<path class="st8" d="M107.61,120.78C107.61,120.78,107.61,120.78,107.61,120.78l-0.06,0.02c-3.39,1.54-5.35,4.14-3.4,7.92
						C107.92,127.89,108.61,124.21,107.61,120.78z"/>
					<g>
						<path class="st7" d="M107.61,120.78c-0.42,2.55-1.49,5.6-3.47,7.94C107.92,127.89,108.61,124.21,107.61,120.78z"/>
					</g>
				</g>
				<g>
					<path class="st8" d="M97.66,123.8C97.66,123.8,97.66,123.8,97.66,123.8l0.04,0.06c2.27,2.94,5.25,4.26,8.49,1.5
						C104.51,121.87,100.77,122.04,97.66,123.8z"/>
					<g>
						<path class="st7" d="M97.66,123.8c2.58-0.17,5.79,0.17,8.52,1.56C104.51,121.87,100.77,122.04,97.66,123.8z"/>
					</g>
				</g>
				<path class="st17" d="M108.28,123.61c-1.8-0.01-4.31,0.42-6.6,1.78c-3.09,1.82-4.37,3.23-4.58,6.91
					c-0.29,5.2,4.71,11.98,12.99,9.39c4.43-1.39,6.89-4.36,6.96-9.49c0.07-4.65-3.95-8.61-8.01-8.54L108.28,123.61z"/>
				<path class="st18" d="M111.1,126.07c-0.09,0.43-0.19,0.55-0.56,0.71c-0.36,0.15-0.96,0.04-1.11-0.34
					c-0.34-0.87,1.52-1.18,1.67-0.44L111.1,126.07z"/>
				<path class="st18" d="M112.4,126.45c-0.39-0.1-1.42,0.02-0.76,0.57c0.18,0.15,0.54,0.18,0.74,0.07
					c0.29-0.15,0.36-0.41,0.05-0.63L112.4,126.45z"/>
				<path class="st18" d="M110.49,127.18c-0.12,0.03-0.27,0.13-0.29,0.25c0.02,0.66,2.01,0.07,0.62-0.27c0,0-0.12-0.02-0.17-0.01
					C110.6,127.14,110.49,127.18,110.49,127.18z"/>
				<g>
					<path class="st19" d="M97.1,132.29c0.13-2.26,0.66-3.67,1.77-4.83c0,0-2.54,4.83,2.64,10.62c2.09,2.34,5.45,3.89,8.57,3.6
						C101.81,144.28,96.81,137.49,97.1,132.29z"/>
				</g>
			</g>
		</g>
		<g>
			<g>
				<path class="st12" d="M73.12,133.91c1.34,0.55,3.03,2.6,3.04,4.07c-1.01-1.38-2.06-2.29-3.5-2.69c0.13-0.41,0.27-0.91,0.43-1.27
					L73.12,133.91z"/>
				<g>
					<path class="st8" d="M78.68,131.72C78.68,131.72,78.68,131.72,78.68,131.72l0,0.05c-0.06,2.44-1.13,4.3-3.92,4.08
						C74.3,133.35,76.35,132,78.68,131.72z"/>
					<g>
						<path class="st7" d="M78.68,131.72c-1.43,0.91-3,2.33-3.92,4.13C74.3,133.35,76.35,132,78.68,131.72z"/>
					</g>
				</g>
				<path class="st20" d="M77.78,136.24c1.95-2.04,6.36-1.48,7.47,1.58c0.59,1.62,0.59,2.69,0.55,4.38
					c-0.04,1.68-0.55,3.82-1.35,5.25c-0.46,0.83-0.69,1.14-1.52,1.39c-0.67,0.2-1.33,0.26-2.02,0.61c-1.29,0.67-1.96,1.95-3.57,1.57
					c-1.51-0.35-2.89-1.2-4.04-2.22c-1.22-1.08-1.7-1.51-2.74-2.77c-1.8-2.19-1.97-5.8,0.57-7.18c1.4-0.76,2.27-0.99,3.83-0.98
					c0.59,0,0.91-0.01,1.45-0.39c0.36-0.25,1.01-0.86,1.14-1.02L77.78,136.24z"/>
				<path class="st21" d="M81.14,138.02c0.73,0.07,1.36-0.25,1.4-0.72c0.05-0.47-0.51-0.91-1.23-0.98c-0.73-0.07-1.36,0.25-1.4,0.72
					C79.85,137.51,80.41,137.95,81.14,138.02z"/>
				<path class="st21" d="M82.93,138.23c0.12,0.27,0.44,0.38,0.71,0.25c0.27-0.12,0.38-0.44,0.26-0.71
					c-0.12-0.27-0.44-0.38-0.71-0.26C82.92,137.64,82.81,137.96,82.93,138.23z"/>
				<g>
					<path class="st22" d="M73.3,148.81c-1.22-1.08-1.7-1.51-2.74-2.77c-1.8-2.19-1.97-5.8,0.57-7.18c0.02-0.01,0.03-0.02,0.05-0.02
						c-0.83,1.43-0.95,3.09,0.5,5.47c1.58,2.59,4.3,5.52,7.09,6.6c-0.4,0.18-0.86,0.26-1.43,0.12
						C75.83,150.67,74.45,149.83,73.3,148.81z"/>
				</g>
			</g>
		</g>
		<g>
			<g>
				<g>
					<path class="st12" d="M91.52,153.01c-0.17-0.27-0.42-0.48-0.71-0.63c0.22-0.07,0.52,0.05,0.75,0.37
						c0.07,0.1,0.21,0.31,0.3,0.54c-0.05,0.05-0.09,0.11-0.14,0.17C91.67,153.29,91.6,153.14,91.52,153.01z"/>
					<path class="st12" d="M91.72,153.46c-0.14,0.18-0.29,0.38-0.45,0.61c-0.11-0.15-0.92-1.16-0.67-1.54
						c0.05-0.08,0.12-0.13,0.21-0.15c0.29,0.15,0.54,0.36,0.71,0.63C91.6,153.14,91.67,153.29,91.72,153.46z"/>
					<path class="st12" d="M59.45,138.76c0.29-0.19,1.29-0.74,1.72-0.88C60.82,138.5,60.22,138.59,59.45,138.76z"/>
					<path class="st12" d="M59.45,138.76c0.27,0.45,0.53,0.82,0.77,1.14C59.96,139.6,59.78,139.37,59.45,138.76z"/>
					<path class="st12" d="M61.84,139.01c-0.46,0.14-1.13,0.8-1.59,0.94c-0.01-0.01-0.02-0.03-0.03-0.04
						c-0.24-0.32-0.5-0.7-0.77-1.14c0.77-0.18,1.37-0.26,1.72-0.88C61.45,138.29,61.66,138.66,61.84,139.01z"/>
				</g>
				<g>
					<path class="st11" d="M69.75,147.47c1.85,2.18,5.8,5.48,8.72,5.95c4.3,0.69,5.48,0.12,10.03-1.17
						c1.15-0.34,2.46-0.11,3.02,0.76c0.64,0.99,0.32,3.34-1.22,4.66c-2.83,2.38-2.27,1.95-5.88,3.73c-3.61,1.78-7.07,2.11-9.99,1.57
						c-2.96-0.55-5.38-1.97-7.74-3.9c-0.92-0.86-3.73-3.67-5.04-6.91c-1.33-3.13-2.03-6.59-0.25-9.51c0.69-1.14-0.48-1.46-1.94-3.88
						c0.77-0.18,1.37-0.26,1.72-0.88c1.42,2.08,1.11,2.86,3.05,4.25C65.71,143.19,68.37,145.86,69.75,147.47z"/>
					<path class="st12" d="M91.29,154.09c0.24,0.15,0.46,0.06,0.56-0.1c0.26-0.42-0.15-1.04-0.29-1.24
						c-0.31-0.44-0.77-0.5-0.96-0.22c-0.25,0.37,0.56,1.39,0.67,1.54C91.28,154.08,91.29,154.09,91.29,154.09z"/>
					<g>
						<path class="st12" d="M61.17,137.88c0.28,0.41,0.49,0.78,0.67,1.13c-0.46,0.14-1.13,0.8-1.59,0.94
							c-0.27-0.34-0.46-0.56-0.8-1.19C59.74,138.57,60.74,138.02,61.17,137.88z"/>
					</g>
				</g>
				<path class="st13" d="M64.16,151.93c3.19,4.58,6.31,6.76,11.91,7.76c3.97,0.71,12.92-2.32,15.2-5.62
					c0.01,0.01,0.01,0.02,0.02,0.03c0.22,0.13,0.42,0.07,0.53-0.06c0.08,1.13-0.39,2.66-1.52,3.63c-2.83,2.38-2.27,1.95-5.88,3.73
					c-3.61,1.78-7.07,2.11-9.99,1.57c-2.96-0.55-5.38-1.97-7.74-3.9c-0.92-0.86-3.73-3.67-5.04-6.91c-1.33-3.13-2.03-6.59-0.25-9.51
					c0.06-0.1,0.1-0.19,0.14-0.28l0,0C61.53,142.37,60.59,146.79,64.16,151.93z"/>
			</g>
		</g>
		<g>
			<g>
				<path class="st12" d="M83.16,131.52c1.28,0.96,2.52,3.63,2.13,5.2c-0.7-1.75-1.57-3.02-3-3.86c0.25-0.41,0.54-0.9,0.81-1.25
					L83.16,131.52z"/>
				<g>
					<path class="st8" d="M89.73,130.72C89.73,130.72,89.73,130.72,89.73,130.72l-0.01,0.05c-0.75,2.6-2.41,4.28-5.33,3.28
						C84.59,131.24,87.15,130.36,89.73,130.72z"/>
					<g>
						<path class="st7" d="M89.73,130.72c-1.79,0.57-3.87,1.66-5.34,3.33C84.59,131.24,87.15,130.36,89.73,130.72z"/>
					</g>
				</g>
				<path class="st7" d="M84.8,136.65c-2.96,0.67-2.37,6.55-2.83,7.79c-0.55,1.46-1.59,2.13-2.06,3.66
					c-0.37,1.2-0.49,2.84,0.13,4.54c2.16,5.91,15.94,3.3,14.68-3.69c-0.24-1.34-0.78-2.8-1.73-3.77c-0.91-0.92-1.39-1.29-1.85-2.59
					c-1.01-2.9-2.07-6.84-6.23-5.97L84.8,136.65z"/>
				<path class="st23" d="M86.9,139.92c0.45,0.68,1.16,0.99,1.6,0.7c0.44-0.29,0.43-1.07-0.01-1.75c-0.45-0.68-1.16-0.99-1.6-0.7
					C86.45,138.47,86.45,139.25,86.9,139.92z"/>
				<path class="st23" d="M88.45,141.8c0.06,0.32,0.37,0.53,0.69,0.47c0.32-0.06,0.53-0.37,0.47-0.69
					c-0.06-0.32-0.37-0.53-0.69-0.47C88.6,141.17,88.39,141.48,88.45,141.8z"/>
				<g>
					<path class="st24" d="M80.03,152.65c-0.62-1.7-0.5-3.34-0.13-4.54c0.47-1.53,1.51-2.2,2.06-3.66c0.3-0.8,0.16-3.53,0.82-5.55
						c0,0,0.58,3.78-0.68,7.49c-0.5,1.48-0.91,3.87-0.55,4.92c0.37,1.05,0.5,2.87,3.92,4.59C83,155.75,80.79,154.73,80.03,152.65z"
						/>
				</g>
			</g>
		</g>
		<g>
			<g>
				<path class="st12" d="M90.35,133.54c1.69,0.09,4.34,1.7,4.92,3.31c-1.64-1.13-3.15-1.73-4.9-1.62c-0.02-0.5-0.06-1.11-0.02-1.57
					L90.35,133.54z"/>
				<g>
					<path class="st8" d="M95.63,128.99C95.64,128.99,95.64,128.98,95.63,128.99l0.02,0.05c0.87,2.72,0.41,5.17-2.75,6.01
						C91.43,132.47,93.17,130.18,95.63,128.99z"/>
					<g>
						<path class="st7" d="M95.63,128.99c-1.23,1.55-2.41,3.73-2.73,6.06C91.43,132.47,93.17,130.18,95.63,128.99z"/>
					</g>
				</g>
				<path class="st20" d="M96.39,134.31c1.36-3,6.44-4.08,8.84-1.14c1.27,1.56,1.68,2.74,2.29,4.62c0.6,1.87,0.86,4.42,0.54,6.31
					c-0.19,1.09-0.33,1.52-1.14,2.12c-0.66,0.48-1.37,0.8-1.99,1.45c-1.17,1.23-1.41,2.9-3.33,3.11c-1.8,0.19-3.65-0.21-5.31-0.89
					c-1.76-0.72-2.46-1.01-4.09-2c-2.84-1.72-4.41-5.64-2.14-8.13c1.25-1.38,2.12-1.97,3.84-2.56c0.65-0.22,1-0.37,1.45-0.99
					c0.3-0.41,0.78-1.34,0.87-1.56L96.39,134.31z"/>
				<path class="st21" d="M100.77,134.98c0.83-0.2,1.4-0.8,1.27-1.34c-0.13-0.54-0.91-0.81-1.74-0.61c-0.83,0.2-1.4,0.8-1.27,1.34
					C99.16,134.91,99.94,135.19,100.77,134.98z"/>
				<path class="st21" d="M102.83,134.52c0.24,0.25,0.63,0.25,0.88,0.01c0.25-0.24,0.25-0.63,0.01-0.88
					c-0.24-0.25-0.63-0.25-0.88-0.01C102.59,133.88,102.59,134.27,102.83,134.52z"/>
				<g>
					<path class="st22" d="M96.29,149.9c-1.76-0.72-2.46-1.01-4.09-2c-2.84-1.72-4.41-5.64-2.14-8.13c0.01-0.02,0.03-0.03,0.04-0.05
						c-0.37,1.9,0.14,3.78,2.65,5.84c2.74,2.25,6.87,4.43,10.36,4.54c-0.37,0.36-0.84,0.61-1.53,0.69
						C99.79,150.98,97.94,150.58,96.29,149.9z"/>
				</g>
			</g>
		</g>
		<g>
			<path class="st25" d="M121.35,131.23c0,0-14.61,10.72-26.78,16.82c-12.17,6.1-28.53,12.92-28.53,12.92s8.82,11.08,16.08,13.79
				c9.83,3.68,17.8,0.67,24.8-3.17c8.14-4.47,15.94-10.49,18.05-20.35C126.77,142.81,121.35,131.23,121.35,131.23z"/>
			<path class="st2" d="M113.87,145.21c0.73,3,2.89,5.05,4.83,4.58c1.94-0.47,2.93-3.28,2.2-6.28c-0.73-3-2.89-5.05-4.83-4.58
				C114.13,139.4,113.15,142.21,113.87,145.21z"/>
			<path class="st2" d="M115.84,153.08c-0.2,1.22,0.64,2.37,1.86,2.57c1.22,0.2,2.37-0.64,2.57-1.86c0.2-1.22-0.63-2.37-1.86-2.57
				C117.19,151.03,116.04,151.86,115.84,153.08z"/>
			<g>
				<path class="st26" d="M82.49,174.21c-6.25-2.34-13.99-10.69-15.66-13.16c0,0,7.46-3.17,7.46-3.17s2.02,8.52,11.25,13.27
					c6.67,3.43,16.85,3.84,29.78-5.93c-2.86,3.03-7.83,5.72-8.02,5.82C100.29,174.88,92.33,177.88,82.49,174.21z"/>
			</g>
		</g>
	</g>
	<path class="st27" d="M136.39,153.15c0,0-9.91-2.32-14.86,1.61l-3.35,3.49c0,0-10.19,2.91-7.71,5.53c0,0,3.78,0.73,8-0.87
		c0,0-6.55,6.55-7.86,7.57c0,0-12.66,3.78-6.84,4.95c0,0,6.55,3.06,16.59-4.07c0,0,9.21-10.22,16.54-10.49L136.39,153.15z"/>
	<path class="st1" d="M136.8,87.46c0,0,2.97-4.34,7.11-1.78l12.54,35.38l-13.97-16.57l2.72-0.49L136.8,87.46"/>
	<path class="st1" d="M175.03,85.94c0,0-3.07-4.27-7.15-1.62l-11.73,35.65l13.6-16.88l-2.74-0.43L175.03,85.94"/>
	<circle class="st1" cx="151.66" cy="131.04" r="1.6"/>
	<circle class="st1" cx="153.69" cy="145.01" r="1.6"/>
	<circle class="st1" cx="150.93" cy="173.1" r="1.6"/>
	<circle class="st1" cx="150.06" cy="184.16" r="1.6"/>
	<circle class="st1" cx="149.33" cy="196.24" r="1.6"/>
	<circle class="st1" cx="149.18" cy="208.17" r="1.6"/>
	<path class="st1" d="M153.98,152"/>
	<g>
		<defs>
			<polygon id="SVGID_1_" points="152.24,119.99 153.98,151.13 160.82,151.42 159.37,120.13 			"/>
		</defs>
		<clipPath id="SVGID_2_">
			<use xlink:href="#SVGID_1_"  style="overflow:visible;"/>
		</clipPath>
		<path class="st28" d="M155.68,121.5c0,0-2.84,11.82-0.33,17.81c0.16,0.37,0.31,0.74,0.41,1.13c0.77,2.83,3.5,14.76-0.91,29.11
			c-0.84,2.72-1.28,5.53-1.4,8.36c-0.35,8.05-0.86,23.62,0.09,29.29"/>
	</g>
	<g>
		<defs>
			<polygon id="SVGID_3_" points="153.55,165.82 158.79,168.1 155.59,212.97 149.33,208.84 			"/>
		</defs>
		<clipPath id="SVGID_4_">
			<use xlink:href="#SVGID_3_"  style="overflow:visible;"/>
		</clipPath>
		<path class="st29" d="M155.68,121.54c0,0-2.84,12.15-0.33,18.31c0.16,0.38,0.31,0.77,0.41,1.17c0.77,2.91,3.5,15.17-0.91,29.92
			c-0.84,2.79-1.28,5.68-1.4,8.59c-0.35,8.28-0.86,24.28,0.09,30.11"/>
	</g>
	<text transform="matrix(1 0 0 1 33.0171 28.9773)" class="st2 st30 st31">DIET  PLAN</text>
</g>
</svg>
